inDegrees=no
num_controls=7
num_derivatives=13
num_iterations=138
num_multipliers=7
num_parameters=0
num_slacks=7
num_states=26
objective=0.498067
objective_accelerations=0.040735
objective_balance=0.003534
objective_effort=0.038647
objective_height=0.409265
objective_ligament=0.005885
solver_duration=1674.556812
status=Solve_Succeeded
success=true
DataType=double
version=3
OpenSimVersion=4.5
endheader
time	/jointset/ground_pelvis/pelvis_tilt/value	/jointset/ground_pelvis/pelvis_tx/value	/jointset/ground_pelvis/pelvis_ty/value	/jointset/hip_r/hip_flexion_r/value	/jointset/hip_r/hip_adduction_r/value	/jointset/hip_r/hip_rotation_r/value	/jointset/back/lumbar_extension/value	/jointset/patellofemoral_r/patellar_flexion_r/value	/jointset/knee_r/knee_flexion_r/value	/jointset/knee_r/knee_adduction_r/value	/jointset/knee_r/knee_rotation_r/value	/jointset/ankle_r/ankle_angle_r/value	/jointset/subtalar_r/subtalar_angle_r/value	/jointset/ground_pelvis/pelvis_tilt/speed	/jointset/ground_pelvis/pelvis_tx/speed	/jointset/ground_pelvis/pelvis_ty/speed	/jointset/hip_r/hip_flexion_r/speed	/jointset/hip_r/hip_adduction_r/speed	/jointset/hip_r/hip_rotation_r/speed	/jointset/back/lumbar_extension/speed	/jointset/patellofemoral_r/patellar_flexion_r/speed	/jointset/knee_r/knee_flexion_r/speed	/jointset/knee_r/knee_adduction_r/speed	/jointset/knee_r/knee_rotation_r/speed	/jointset/ankle_r/ankle_angle_r/speed	/jointset/subtalar_r/subtalar_angle_r/speed	/forceset/tau_hip_flexion_r	/forceset/tau_hip_adduction_r	/forceset/tau_hip_rotation_r	/forceset/tau_knee_flexion_r	/forceset/tau_ankle_angle_r	/forceset/tau_subtalar_angle_r	/forceset/tau_lumbar_extension	lambda_cid13_p0	lambda_cid14_p0	lambda_cid14_p1	lambda_cid14_p2	lambda_cid14_p3	lambda_cid14_p4	lambda_cid14_p5	/jointset/ground_pelvis/pelvis_tilt/accel	/jointset/ground_pelvis/pelvis_tx/accel	/jointset/ground_pelvis/pelvis_ty/accel	/jointset/hip_r/hip_flexion_r/accel	/jointset/hip_r/hip_adduction_r/accel	/jointset/hip_r/hip_rotation_r/accel	/jointset/back/lumbar_extension/accel	/jointset/patellofemoral_r/patellar_flexion_r/accel	/jointset/knee_r/knee_flexion_r/accel	/jointset/knee_r/knee_adduction_r/accel	/jointset/knee_r/knee_rotation_r/accel	/jointset/ankle_r/ankle_angle_r/accel	/jointset/subtalar_r/subtalar_angle_r/accel	gamma_cid13_p0	gamma_cid14_p0	gamma_cid14_p1	gamma_cid14_p2	gamma_cid14_p3	gamma_cid14_p4	gamma_cid14_p5
0	-0.006515294734594348	0.09626024908815529	0.942724091926214	0.1762555222360518	-0.2321525213589523	-0.2616406317792714	-0.038598046466844	0.0731786387345011	0.07317863873451017	0.1745323999275074	0.1745328394918814	0.03247278518263602	-0.003451795623223933	0	0	0	0	0	0	0	0	0	0	0	0	0	0.2277352973861491	-0.1683317793267913	-0.04604517528990669	-0.4186305709464899	0.4252478511548451	-0.1468050941819921	-0.1221657833819062	-39.07626335963766	86.93873114444024	-38.75928298922388	-4.527088191412528	-41.3158914866736	-677.9756620377578	59.41099129646597	-1.732531816658528	-0.8846501429904888	-0.5809923919786528	8.360203252425077	-0.0007130523077646979	2.550930524790078	-4.825707141686906	9.270144024268491	9.270144024266109	-2.496805505888077	0.1454965435567384	3.397952938024555	0.7590675797820854	8.706461888831017e-08	3.113325412998422e-08	-6.450320135288397e-07	1.865797105594067e-07	4.213401207550776e-08	-3.184770767427887e-09	-3.247125731455198e-07
0.01	-0.00659562285182966	0.0962169421937325	0.9426961723011062	0.1766592316031065	-0.2321515063147426	-0.261505529248129	-0.03884156054798887	0.0736291389090154	0.07362913890902363	0.1744080527757285	0.1745288967336789	0.03263899155535068	-0.003413678715372314	-0.01599262513617393	-0.008598240364419451	-0.005571800930016984	0.08035263572606376	0.0001537755973936844	0.02687272875395267	-0.04836513444723081	0.08972672085829739	0.08972672085829635	-0.02465047130538421	-0.0007506970528039941	0.03311904310899358	0.007544613845277997	0.2230864085770197	-0.1788193177409848	-0.04486711644601079	-0.4131009453404446	0.4153441470685666	-0.1337725150032955	-0.1182941665151759	-39.09129808257949	84.2469292207964	-33.63865753722738	-5.265659965814303	-40.18940065443218	-678.391982464517	69.14696858849318	-1.521675152019237	-0.8379317775138645	-0.5434559667652907	7.814410391184588	0.01597280794265927	2.733324480775074	-4.791264329509286	8.767921596862564	8.767921596863985	-2.416405372140491	-0.1796184128159763	3.250558596167462	0.740263390621332	1.151778122402451e-07	2.521068450843129e-08	-8.604890190789824e-07	1.720457987117295e-07	7.364385552859442e-08	-1.655605452230959e-07	-3.761346443657158e-07
0.02	-0.006833686678398741	0.09608954873679716	0.942612898262048	0.1778547906591288	-0.2321504435261238	-0.2611061233434336	-0.03955859552025805	0.07496570338816401	0.07496570338816444	0.1740437534250362	0.1745185938883503	0.03313272407892202	-0.003302494648323862	-0.03154714186929204	-0.01681731250251089	-0.01107088279009711	0.1583699377916351	9.548881975296116e-06	0.05286067471099176	-0.09470417822522902	0.1772128609266826	0.177212860926695	-0.04799043978184343	-0.001272017430286439	0.06550523017121837	0.01461343183938336	0.2184375197678871	-0.1893068561551768	-0.04368905760211592	-0.407571319734399	0.4054404429822862	-0.1207399358245977	-0.1144225496484506	-39.13581532852147	81.63599933624405	-28.52380405007469	-5.98054331331548	-39.25890036285563	-677.5899051515709	78.66346636580663	-1.644910136047674	-0.8088164977245896	-0.5664485779912918	7.893136520326529	-0.06031351487020689	2.373973965407311	-4.420489007840568	8.822027866286021	8.822027866286522	-2.234704940103002	0.191371878621103	3.251381728671112	0.6639084095476042	1.4329100559218e-07	1.928811488687836e-08	-1.075946024629125e-06	1.575118868640522e-07	1.051536989816811e-07	-3.279363196787639e-07	-4.275567155859118e-07
0.03	-0.007225297663511317	0.0958812563345454	0.9424747499889324	0.1798199369421561	-0.2321523501750441	-0.2604530489350649	-0.04072885601552002	0.07716648362174333	0.07716648362174854	0.1734529245329375	0.1745058401587945	0.03394595874595228	-0.00312316827300968	-0.04668019687229528	-0.02483692173933714	-0.0165631100073656	0.2343151090936688	-0.0004239706221334561	0.07762086051334663	-0.13904894905453	0.2625542720035937	0.2625542720036053	-0.06996535820000513	-0.001287114275642444	0.09694136600196612	0.02117276882924478	0.2111682963176264	-0.1916762194643179	-0.04159727645352692	-0.3975408355706002	0.3888513803238062	-0.1119948817489628	-0.1088477585168298	-39.2087153633624	76.67094008523028	-25.66093654785143	-6.361845311165562	-36.01525596548702	-677.0132682778735	83.21737353410658	-1.433263160620362	-0.7978750465429663	-0.5413267631051873	7.393580256231345	-0.03996261956651485	2.50709135735385	-4.396625355089024	8.331831888616467	8.33183188861614	-2.147542274920776	-0.09914002428609849	3.059704238691263	0.6399336585880554	1.626690081056357e-07	1.708823395424227e-08	-1.217565578411399e-06	1.701347168891219e-07	1.251073074790592e-07	-4.400599201866217e-07	-4.844752750714402e-07
0.04	-0.007765391194281096	0.09559289945794995	0.9422815360497423	0.18253420950243	-0.2321596103092831	-0.2595563625747319	-0.042333595065996	0.08020900479813869	0.08020900479813861	0.1726486150602002	0.1744926975491399	0.03506754971697389	-0.002880651064820372	-0.06124365100309075	-0.03283020737124758	-0.02208401600503523	0.3081951932392908	-0.00106114818165395	0.1015830651038711	-0.181599889268438	0.3455610494894172	0.3455610494894283	-0.09068655590808627	-0.001349793447882795	0.1271764909693029	0.02725159841441222	0.2038990728673582	-0.1940455827734616	-0.039505495304957	-0.3875103514068044	0.3722623176653217	-0.1032498276733313	-0.1032729673852124	-39.30850699305417	71.77951940948934	-22.79832075013582	-6.728091224538713	-32.95745024775867	-675.336777045701	87.58191161942634	-1.53098996160641	-0.8035517767411444	-0.5721843340715267	7.480119089044121	-0.1010451259525785	2.214377723041166	-4.061722884762126	8.355101148068487	8.355101148069025	-1.983960798086828	0.1818554132443037	3.011179555989224	0.5678069286088571	1.818669035914939e-07	1.49651094894189e-08	-1.357662710507737e-06	1.833174797363101e-07	1.448226430907526e-07	-5.511473933965866e-07	-5.41507164211924e-07
